<svg width="80" height="80" viewBox="0 0 80 80" fill="none" xmlns="http://www.w3.org/2000/svg">
<circle cx="40" cy="40" r="40" fill="white"/>
<path fill-rule="evenodd" clip-rule="evenodd" d="M15.25 66.1428C15.2495 65.5654 15.3515 64.9888 15.555 64.4412C17.5385 59.235 21.0433 54.7566 25.6069 51.5972C30.1705 48.4378 35.5784 46.7458 41.1168 46.7445C46.6552 46.7432 52.0639 48.4327 56.6289 51.59C61.1391 54.7095 64.6165 59.1168 66.6145 64.2423C60.0304 71.4665 50.5446 76 40 76C30.4131 76 21.7015 72.2526 15.25 66.1428ZM49.4093 35.4152C47.209 37.6305 44.2247 38.875 41.113 38.875C38.0013 38.875 35.017 37.6305 32.8166 35.4152C30.6163 33.1999 29.3802 30.1954 29.3802 27.0625C29.3802 23.9296 30.6163 20.9251 32.8166 18.7098C35.017 16.4945 38.0013 15.25 41.113 15.25C44.2247 15.25 47.209 16.4945 49.4093 18.7098C51.6097 20.9251 52.8458 23.9296 52.8458 27.0625C52.8458 30.1954 51.6097 33.1999 49.4093 35.4152Z" fill="#A3A3A3"/>
</svg>
