<svg width="32" height="32" viewBox="0 0 32 32" fill="none" xmlns="http://www.w3.org/2000/svg">
<rect width="32" height="32" rx="16" fill="#6233FF"/>
<path d="M19.5881 12.936L18.2021 13.356C18.0201 12.586 17.5301 12.012 16.6761 11.802V15.05C18.3561 15.484 19.8821 16.128 19.8821 18.06C19.8821 19.782 18.6221 20.874 16.6761 21.084V22.596H15.3321V21.098C13.3021 20.874 12.1401 19.642 11.9581 18.186L13.4701 17.752C13.6241 18.746 14.1841 19.474 15.3321 19.698V16.184C13.7921 15.778 12.3501 15.204 12.3501 13.286C12.3501 11.578 13.6241 10.598 15.3321 10.402V9.03H16.6761V10.416C18.2301 10.626 19.3221 11.522 19.5881 12.936ZM13.8621 13.174C13.8621 13.986 14.4501 14.378 15.3321 14.672V11.76C14.3381 11.9 13.8621 12.432 13.8621 13.174ZM18.3281 18.158C18.3281 17.262 17.6701 16.842 16.6761 16.534V19.712C17.6421 19.572 18.3281 19.068 18.3281 18.158Z" fill="white"/>
</svg>
