<svg width="120" height="120" viewBox="0 0 120 120" fill="none" xmlns="http://www.w3.org/2000/svg">
<g clip-path="url(#clip0_2334_2359)">
<rect width="120" height="120" rx="20" fill="black"/>
<path d="M98.6513 20.3949C98.9278 20.9825 97.9441 24.2541 94.7579 26.8084C94.5065 27.01 94.7732 27.6571 95.0926 27.6154C100.392 26.9241 105.428 28.7267 105.756 30.5292C105.89 31.2665 104.302 34.2961 100.808 36.36C100.557 36.5081 100.656 36.9644 100.946 36.9961C105.282 37.4713 110.811 40.2943 110.811 42.4159C110.811 43.3244 108.591 45.2195 104.621 47.026C104.395 47.129 104.403 47.4681 104.631 47.5689C107.995 49.0549 112.049 53.0876 112.582 55.7808C112.586 55.7975 112.587 55.8139 112.587 55.8308C112.552 56.9749 110.157 58.6322 105.147 59.1298C104.859 59.1583 104.766 59.6138 105.009 59.769C108.819 62.1939 112.194 68.6293 111.357 70.0147C110.491 71.4496 108.062 71.6381 103.863 71.1504C103.619 71.1219 103.458 71.4061 103.603 71.6034C106.768 75.8774 107.368 80.5471 106.716 81.6281C106.33 82.2686 102.821 81.7082 99.5699 80.7075C99.3349 80.6351 99.1204 80.8862 99.2218 81.1103C101.241 85.5857 100.527 91.6164 99.744 92.1769C98.963 92.7354 96.4056 92.5531 93.1372 89.7416C92.9533 89.5834 92.6574 89.7143 92.6538 89.9566C92.5932 94.1533 90.8375 101.003 89.9185 101.003C89.0086 101.003 87.2032 100.32 85.0357 96.5987C84.9016 96.3683 84.5346 96.4364 84.489 96.699C83.4541 102.649 79.4862 107.153 78.7033 107.184C77.9382 107.215 75.6693 105.683 74.2391 101.859C74.1443 101.606 73.7576 101.608 73.6667 101.863C71.838 106.976 67.5793 110.536 66.5434 110.516C65.5389 110.497 63.6876 108.817 63.1389 104.868C63.0999 104.585 62.6697 104.506 62.5287 104.753C60.3203 108.634 55.961 111.11 55.2033 110.943C54.4281 110.771 52.8079 108.718 53.0495 104.514C53.064 104.26 52.7503 104.104 52.5557 104.268C48.7277 107.492 42.4515 108.816 41.5405 108.353C40.1491 107.644 41.3345 104.78 42.7109 101.736C42.8183 101.498 42.5603 101.251 42.3234 101.361C37.5717 103.565 30.9704 103.731 30.3644 103.114C30.3425 103.092 30.3242 103.069 30.3026 103.047C29.6479 102.364 31.236 99.4509 33.2363 96.8919C33.4092 96.6708 33.174 96.3314 32.904 96.4082C27.9747 97.813 21.7901 96.749 21.213 96.0869C20.6405 95.4302 21.812 92.5007 24.3882 89.8788C24.5752 89.6886 24.4164 89.3462 24.1505 89.3653C19.0669 89.7304 14.3037 87.5818 13.9417 86.5467C13.5894 85.5395 16.0917 83.2553 18.5184 81.2991C18.7201 81.1365 18.6059 80.7993 18.3471 80.7824C13.675 80.4785 8.88317 77.5858 8.49241 76.163C8.24839 75.2749 11.625 72.5016 13.8367 70.7785C14.0239 70.6325 13.9496 70.33 13.7187 70.2759C8.65773 69.0917 5.34368 64.766 5.30133 63.3199C5.26389 62.0307 8.63286 59.7187 11.8338 59.0872C12.1344 59.0279 12.2393 58.4095 11.9745 58.2554C7.8795 55.8699 4.91248 50.1884 5.30133 48.8374C5.47785 48.2242 9.43733 46.9506 13.0919 47.4695C13.3826 47.5107 13.6039 47.0782 13.3979 46.8689C9.74966 43.1671 8.66839 37.6861 9.35344 36.9267C9.99149 36.2201 13.3454 35.549 16.7089 37.1123C16.9945 37.2451 17.4866 36.745 17.347 36.463C15.3902 32.5128 14.6139 25.9123 15.4449 25.2008C16.3176 24.4536 19.4647 25.4308 22.7072 27.6649C22.9444 27.8284 23.3146 27.543 23.2337 27.2663C21.9546 22.887 23.4584 15.0666 24.4623 15.0666C25.4466 15.0666 28.6472 16.9697 30.8707 19.5261C31.0581 19.7418 31.4716 19.5724 31.4587 19.2869C31.2377 14.3845 34.2495 9.32317 35.3925 8.94211C36.5063 8.57084 38.8533 11.1143 39.9963 14.1176C40.0953 14.3776 40.5169 14.3759 40.612 14.1145C42.1324 9.93674 46.4012 4.84328 47.4158 4.84328C48.3891 4.84328 50.8788 8.09303 51.4127 11.198C51.4613 11.4812 51.939 11.5941 52.1013 11.357C54.4549 7.91525 60.3044 3.22 62.2421 3.86221C62.2869 3.87707 62.3233 3.90574 62.3517 3.94345C63.2225 5.09767 64.0726 7.28561 63.663 11.3136C63.6346 11.592 64.0172 11.7626 64.2123 11.5619C67.7452 7.9264 74.8387 5.76554 76.1074 6.59075C77.401 7.4321 76.2262 9.6787 75.2854 13.9173C75.2332 14.152 75.4906 14.3343 75.6989 14.2137C81.6935 10.7404 88.4823 11.2848 89.087 12.4944C89.4573 13.235 88.7127 16.4283 85.6719 19.4381C85.4579 19.65 85.6926 20.0734 85.9845 19.9985C91.8726 18.4876 98.1168 19.2594 98.6513 20.3949Z" stroke="#19191A" stroke-width="1.91279"/>
<path d="M50.138 65.0851C47.7902 62.4853 44.8921 58.0747 47.8479 55.8414C51.019 53.4455 53.9904 60.1066 54.685 62.9613" stroke="#19191A" stroke-width="1.91279" stroke-linecap="round"/>
<path d="M60.8925 70.94C51.9079 73.7892 46.8002 69.5606 44.4425 67.3349C41.896 64.3258 37.6401 65.3076 35.5418 68.5563C32.9188 72.6172 36.6993 83.5075 47.741 86.7309C58.3226 89.82 63.319 86.0021 65.5425 84.288C71.5883 79.627 72.1236 67.3786 60.8925 70.94Z" stroke="#19191A" stroke-width="1.91279"/>
<path d="M45.6642 68.6699L37.5122 79.6775" stroke="#19191A" stroke-width="1.91279"/>
<path d="M51.4191 71.7422L46.0464 86.2816" stroke="#19191A" stroke-width="1.91279"/>
<path d="M57.3676 71.7891L55.5898 87.9065" stroke="#19191A" stroke-width="1.91279"/>
<path d="M62.7461 70.4507L63.6847 85.7424" stroke="#19191A" stroke-width="1.91279"/>
<path d="M40.145 87.8525C42.1398 89.3727 47.6803 92.1938 53.8821 91.3177" stroke="#19191A" stroke-width="1.91279" stroke-linecap="round"/>
<path fill-rule="evenodd" clip-rule="evenodd" d="M60.164 47.7961C61.4354 42.2173 65.0984 33.231 69.0849 33.2168C72.7898 33.2034 72.9029 38.213 70.14 44.9868C68.8508 48.1474 68.1588 52.7416 67.5377 56.8644C66.8278 61.5774 66.2106 65.6744 64.9003 66.31C61.3739 68.0206 56.137 65.4624 60.164 47.7961ZM68.2678 36.9292C68.4908 36.6248 68.4248 36.1973 68.1204 35.9744C67.8161 35.7514 67.3886 35.8174 67.1656 36.1218C65.0055 39.0707 62.9475 43.483 61.7118 48.8238C59.8289 56.9612 60.3643 61.7884 60.9947 63.8625C61.1044 64.2235 61.4859 64.4272 61.8469 64.3175C62.2079 64.2078 62.4116 63.8262 62.3019 63.4652C61.7628 61.6914 61.1942 57.1213 63.0429 49.1318L62.5031 49.0068L63.0429 49.1318C64.244 43.9407 66.2341 39.7055 68.2678 36.9292Z" fill="#19191A"/>
<path fill-rule="evenodd" clip-rule="evenodd" d="M52.1581 28.3911C48.1716 28.4054 44.5089 37.3916 43.2372 42.9704C39.343 60.0547 44.1121 63.0102 47.6199 61.6393C46.4441 59.5065 45.9908 57.2442 47.8475 55.8411C48.6091 55.2656 49.3589 55.2126 50.0686 55.5036C50.2505 54.4318 50.4252 53.2723 50.6059 52.0727L50.611 52.039L50.6115 52.0354C51.2325 47.9134 51.9243 43.3209 53.2132 40.1614C55.9761 33.3876 55.8629 28.3779 52.1581 28.3911ZM51.3412 32.1037C51.5642 31.7993 51.4982 31.3719 51.1938 31.1489C50.8895 30.926 50.462 30.992 50.239 31.2963C48.0788 34.2453 46.0212 38.6578 44.7854 43.9986C42.9025 52.136 43.4379 56.9629 44.068 59.037C44.1777 59.398 44.5592 59.6017 44.9202 59.4921C45.2812 59.3824 45.485 59.0008 45.3753 58.6398C44.8364 56.8659 44.2679 52.2961 46.1165 44.3066L45.451 44.1526L46.1165 44.3066C47.3177 39.1155 49.3075 34.88 51.3412 32.1037Z" fill="#19191A"/>
<path d="M68.1328 29.3524C70.7268 28.6135 75.8993 28.7427 75.8353 35.171" stroke="#19191A" stroke-width="1.91279" stroke-linecap="round"/>
<path d="M51.2065 24.5267C53.8006 23.7878 58.9727 23.917 58.9088 30.3453" stroke="#19191A" stroke-width="1.91279" stroke-linecap="round"/>
</g>
<defs>
<clipPath id="clip0_2334_2359">
<rect width="120" height="120" rx="20" fill="white"/>
</clipPath>
</defs>
</svg>
