<svg width="119" height="57" viewBox="0 0 119 57" fill="none" xmlns="http://www.w3.org/2000/svg">
<path d="M0.462891 56.8044V0.799524H6.0793L5.22237 6.90192C6.08643 3.95635 8.38347 0.462891 10.2556 0.462891H11.9117C15.404 0.462891 17.3121 5.3441 17.3121 14.3491V28.1512C17.3121 37.1562 15.404 42.0374 11.9117 42.0374H10.2556C8.56348 42.0374 6.12244 39.4413 5.22237 37.0848L6.0793 43.1214L6.33132 56.8044H0.462891ZM6.33132 24.1115C6.33132 25.7947 6.79935 26.8046 7.59141 26.8046H10.2556C11.0117 26.8046 11.4797 25.7947 11.4797 24.1115V18.4729C11.4797 16.7055 11.0117 15.6956 10.2556 15.6956H7.59141C6.79935 15.6956 6.33132 16.7055 6.33132 18.4729V24.1115Z" fill="#F53D0F"/>
<path d="M39.9173 41.7007V0.799524H45.1376L44.2807 6.39696C45.1088 3.78803 47.2258 0.462891 48.9179 0.462891H49.53C51.3661 0.462891 52.5797 2.899 53.4437 6.09704C54.2718 2.899 55.8664 0.462891 57.7746 0.462891H58.5666C61.7348 0.462891 63.679 5.59658 63.679 14.5174V41.7007H57.8106V21.3343C57.8106 19.3145 57.3785 18.2204 56.5505 18.2204H55.9024C55.1104 18.2204 54.6423 19.3145 54.6423 21.3343V41.7007H48.9539V21.3343C48.9539 19.3145 48.5219 18.2204 47.6938 18.2204H47.0458C46.2537 18.2204 45.7857 19.3145 45.7857 21.3343V41.7007H39.9173Z" fill="#F53D0F"/>
<path d="M65.916 56.8044V0.799524H71.5324L70.6754 6.90192C71.5395 3.95635 73.8365 0.462891 75.7087 0.462891H77.3648C80.857 0.462891 82.7652 5.3441 82.7652 14.3491V28.1512C82.7652 37.1562 80.857 42.0374 77.3648 42.0374H75.7087C74.0165 42.0374 71.5755 39.4413 70.6754 37.0848L71.7844 42.3166V56.8044H65.916ZM71.7844 24.1115C71.7844 25.7947 72.2524 26.8046 73.0445 26.8046H75.7087C76.4647 26.8046 76.9328 25.7947 76.9328 24.1115V18.4729C76.9328 16.7055 76.4647 15.6956 75.7087 15.6956H73.0445C72.2524 15.6956 71.7844 16.7055 71.7844 18.4729V24.1115Z" fill="#F53D0F"/>
<path d="M91.54 42.0374C87.4357 42.0374 84.8435 36.4829 84.8435 27.8145V14.6857C84.8435 6.01737 87.4357 0.462891 91.54 0.462891H94.3122C98.3445 0.462891 100.937 6.01737 100.937 14.6857V27.8145C100.937 36.4829 98.3445 42.0374 94.3122 42.0374H91.54ZM90.3879 24.0274C90.3879 25.7947 90.82 26.8046 91.648 26.8046H94.2042C94.9603 26.8046 95.4283 25.7947 95.4283 24.0274V18.557C95.4283 16.7055 94.9603 15.7798 94.2042 15.7798H91.648C90.82 15.7798 90.3879 16.7055 90.3879 18.557V24.0274Z" fill="#F53D0F"/>
<path d="M103.147 41.7007V0.799524H108.367L107.51 6.14449C108.302 3.70388 110.347 0.462891 111.931 0.462891H113.011C116.216 0.462891 118.268 5.68074 118.268 14.4333V41.7007H112.399V21.3343C112.399 19.2303 111.967 18.2204 111.139 18.2204H110.275C109.483 18.2204 109.015 19.2303 109.015 21.3343V41.7007H103.147Z" fill="#F53D0F"/>
<path d="M19.4873 0.829102H25.3201L25.3201 41.6584H19.4873V0.829102Z" fill="#F53D0F"/>
<path d="M24.6093 26.8047H31.9054V41.6584H24.6093V26.8047Z" fill="#F53D0F"/>
<path d="M31.1946 0.829102H37.0274V41.6584H31.1946V0.829102Z" fill="#F53D0F"/>
</svg>
